<svg width="48" height="48" viewBox="0 0 48 48" fill="none" xmlns="http://www.w3.org/2000/svg">
<path d="M34.5062 36.1568L33.37 36.5988C33.37 36.5988 31.9854 37.139 31.5083 37.3405C31.0064 37.5356 29.6466 38.0504 29.6466 38.0504C29.6466 38.0504 28.6401 38.4707 28.1949 38.7128C27.7454 38.9489 27.0588 39.3125 27.0588 39.3125C27.0588 39.3125 25.9637 39.8127 25.5601 39.8489C25.0896 39.9159 23.4899 40.1563 23.0355 40.2747C22.9599 40.2131 22.8729 40.1558 22.8145 40.1326C22.8145 40.1326 22.7454 40.125 22.5147 39.8014C22.284 39.4778 22.0117 38.8738 21.9782 38.7128C21.9755 38.675 21.9469 38.5864 21.9469 38.5864C21.9469 38.5864 22.1387 38.2482 21.8524 37.75C21.8118 37.6053 21.7773 37.4756 21.4261 37.4345C21.3904 37.3557 21.4056 37.3141 21.4326 37.2719C21.4331 37.2719 21.4358 37.2735 21.4364 37.273C21.4839 37.213 22.895 36.1287 22.9464 36.0353C22.9977 35.9418 23.0949 35.763 23.0949 35.763C23.0949 35.763 24.8011 34.2222 25.1247 34.0055C25.4483 33.7889 25.934 33.2519 26.189 32.9661C26.444 32.6803 26.8324 31.6047 26.8324 31.6047C27.6017 31.7992 29.5553 32.0752 29.5553 32.0752L29.9513 32.4464C29.9513 32.4464 30.5753 32.4496 30.6941 32.4961C30.8125 32.5425 32.947 33.4864 32.947 33.4864C32.947 33.4864 32.9805 33.6765 32.9967 33.7338C33.0129 33.7916 33.5678 34.133 33.7887 34.3032C34.0102 34.4734 34.1356 34.7241 34.1356 34.7241C34.1356 34.7241 34.1221 35.1568 34.1356 35.2195C34.1464 35.2687 34.5337 35.8311 34.7017 36.0736L34.5046 36.1579L34.5062 36.1568ZM9.594 11.4343C9.594 11.4343 9.87223 11.9546 9.84629 12.3495C9.82468 12.598 9.78309 12.7125 9.78309 12.7125C9.78309 12.7125 9.81658 12.3538 9.60966 11.9394C9.5216 11.7536 9.46758 11.5926 9.46758 11.5926C9.46758 11.5926 9.55672 11.5812 9.594 11.4348M6.22876 14.2641C6.12125 14.1366 5.91595 13.9443 5.91595 13.9443C5.88894 13.9108 5.7771 13.8082 5.7771 13.8082C5.7771 13.8082 5.80628 13.7812 5.87543 13.7925C5.94458 13.8038 6.1569 13.8395 6.18391 13.8616C6.21093 13.8838 6.24442 13.9665 6.29359 14.101C6.34275 14.235 6.51941 14.5478 6.52157 14.5591C6.52373 14.5705 6.33627 14.3916 6.22876 14.2641ZM5.44485 13.3754C5.44485 13.3754 5.15743 13.3138 5.12934 13.249C5.16824 13.2015 5.14501 13.1069 5.14501 13.1069L5.01859 13.0912C5.01859 13.0912 5.06181 12.9929 5.20768 12.9335C5.22929 13.0032 5.37624 13.2474 5.45998 13.2965C5.44215 13.3435 5.44431 13.3754 5.44431 13.3754M45.7543 30.5879C45.6127 30.5901 45.2853 30.8148 44.9655 31.1557C44.6403 31.4972 44.0557 32.0941 43.7505 32.3545C43.4231 32.5922 43.0384 32.8408 42.3933 33.0169C41.7791 33.2 40.4425 33.5998 39.9449 33.8283C39.859 33.7916 38.9762 33.4183 38.2204 33.1881C37.4252 32.9461 36.9757 32.5717 36.7844 32.3713C36.5932 32.1708 36.1042 31.8948 35.893 31.777C35.6818 31.6592 35.5526 31.6333 35.3236 31.5544C35.0951 31.475 34.9967 31.5787 34.7542 31.6781C34.5116 31.7775 34.4424 31.6479 33.6401 31.2573C32.8379 30.8667 31.5391 29.8542 31.4618 29.7964C31.3846 29.7386 31.0907 29.8461 31.0907 29.8461L26.3132 27.0736C26.3132 27.0736 25.954 26.6392 25.6698 26.3059C25.3851 25.9731 24.934 25.9914 24.7784 25.9596C24.6233 25.9271 23.4326 25.9336 23.2932 25.9347C23.1538 25.9358 21.9566 25.3653 21.9566 25.3653L21.8081 24.8207C21.8081 24.8207 19.4887 24.9104 19.3078 24.9196C19.1268 24.9287 17.2948 24.3026 17.03 24.2264C16.7653 24.1502 16.674 24.2145 16.3866 24.2264C16.0987 24.2383 15.6438 24.2264 15.6438 24.2264C15.6438 24.2264 15.5308 23.8769 15.4212 23.7067C15.311 23.5365 15.1186 23.6132 15.05 23.6078C14.9814 23.6024 14.976 23.509 14.976 23.509L15.2731 23.2367C15.2731 23.2367 15.204 23.0805 15.1494 22.9395C15.0949 22.7985 14.6546 22.1475 14.6546 22.1475C14.6546 22.1475 14.6189 21.8277 14.5557 21.4792C14.4925 21.1308 13.8923 17.8125 13.9122 17.7164C13.9322 17.6202 14.1597 13.0129 14.1597 13.0129C14.1597 13.0129 14.1624 12.7395 14.1348 12.6418C14.1073 12.544 13.9863 12.1469 13.9863 12.1469C13.9863 12.1469 14.1251 8.85458 14.1348 8.63145C14.1446 8.40887 13.9517 8.1771 13.9122 8.06203C13.8728 7.94695 13.3542 7.72977 12.7242 7.46775C12.0943 7.20626 9.43354 6.53689 8.9122 6.47746C8.39031 6.41803 7.02455 6.10523 6.63449 5.98259C6.4011 5.90911 6.25793 5.86319 6.17149 5.83672C6.01536 5.64871 5.81168 5.38237 5.60314 5.28134C5.41135 5.15816 5.27197 5.02904 5.27197 5.02904C5.27197 5.02904 5.15419 4.8621 4.98779 4.7292C4.94241 4.60116 4.86137 4.39802 4.86137 4.39802C4.86137 4.39802 4.89487 3.99283 4.48266 3.94043C4.26385 3.95664 4.22279 4.08414 4.30923 4.44557C4.24603 4.63087 4.37244 4.80862 4.37244 4.80862V4.96637C4.37244 4.96637 4.29411 5.05551 4.21469 4.96637C4.17147 4.87129 4.09692 4.69624 3.91485 4.57199C3.87703 4.42558 3.74683 4.17976 3.42592 4.25648C3.20712 4.39046 3.26817 4.58765 3.26817 4.58765L3.44159 4.85562C3.44159 4.85562 3.15957 4.96583 3.33138 5.37642C3.27951 5.50771 3.27141 5.53742 3.31571 5.59739C3.38756 5.68059 3.4297 5.76108 3.36325 5.80268C3.29626 5.84374 3.26871 5.94477 3.26871 5.94477C3.26871 5.94477 3.02937 6.25542 3.12662 6.40237C2.96292 6.56714 2.86784 6.83079 3.42646 6.78108C3.4767 6.86644 3.63176 6.8913 3.63176 6.8913C3.63176 6.8913 3.78627 7.01123 3.85272 7.12793C3.90729 7.24462 3.95483 7.38347 4.08935 7.38022C4.16499 7.48665 4.36758 7.42885 4.67229 7.42074C4.81113 7.4591 5.24603 7.4591 5.3892 7.4483C5.45889 7.45694 5.57181 7.47315 5.69769 7.4926C6.2844 7.6255 7.36167 7.91292 8.09533 8.13712C9.08454 8.43912 11.3131 9.35053 11.4622 9.37484C11.6113 9.39969 11.7318 9.40834 11.7842 9.49856C11.8366 9.58878 11.902 9.83892 11.8831 9.89457C11.8641 9.95021 11.5119 10.5877 11.5119 10.5877C11.5119 10.5877 11.5038 10.6163 11.413 10.6866C11.3217 10.7568 11.2212 11.5623 11.1159 12.048C11.0111 12.5337 10.802 12.9173 10.7696 12.9637C10.7372 13.0102 10.5805 13.0923 10.4724 13.1863C10.3644 13.2809 10.057 14.0016 10.0267 14.0529C9.99703 14.1037 9.9457 14.0621 9.90302 14.0529C9.86034 14.0437 9.85332 14.5975 9.85332 14.5975C9.85332 14.5975 9.83549 14.6077 9.80361 14.5726C9.77174 14.538 9.48162 14.1766 9.48162 14.1766C9.48162 14.1766 9.53835 14.0799 9.60804 13.974C9.68422 13.8946 9.7631 13.8179 9.79929 13.7558C9.86682 13.6412 9.84629 13.4797 9.84629 13.4797C9.84629 13.4797 9.782 13.1663 9.90518 12.853C9.95543 12.5872 9.96731 12.3797 9.98946 12.1442C9.95921 11.8778 9.99595 11.7077 9.65829 11.182C9.70259 11.0458 9.59508 10.7719 9.59508 10.7719C9.59508 10.7719 9.53241 10.5845 9.45299 10.551C9.35412 10.39 9.0867 9.79786 8.82197 9.4937C8.55725 9.19007 8.2023 8.88429 7.55994 8.72059C6.91758 8.5569 6.50969 8.57635 5.90352 8.86268C5.29682 9.14902 4.97159 9.3381 4.73604 9.65145C4.50048 9.96534 4.25953 10.4078 4.1839 11.0556C4.16121 11.531 4.42053 12.2863 4.42053 12.2863C4.42053 12.2863 4.6604 12.8541 4.7047 12.9173C4.68579 13.0205 4.69606 13.0415 4.73604 13.0594C4.72415 13.1021 4.76737 13.0907 4.76737 13.0907C4.76737 13.0907 4.76251 13.1102 4.7987 13.1382C4.81491 13.2036 4.86786 13.3949 4.98779 13.3905C5.00238 13.3716 5.06991 13.4186 5.20876 13.5796C5.3476 13.7412 5.57721 14.0453 5.85544 14.3371C6.13367 14.6288 6.35085 15.014 6.36058 15.0945C6.36976 15.175 6.42379 15.2366 6.42379 15.2366C6.42919 15.2431 6.44216 15.2528 6.45782 15.2641C6.44378 15.3247 6.4146 15.3949 6.3622 15.4635C6.26603 15.5894 5.32167 15.7833 5.04992 15.8595C4.77872 15.9357 4.01264 16.5089 3.7625 16.7509C3.5129 16.9924 3.10069 18.1939 3.0942 18.3106C3.08718 18.4273 3.17686 19.6651 3.11906 19.8703C3.06125 20.0756 3.02883 21.3166 3.0445 21.6035C3.06071 21.8898 3.44591 22.0265 3.51506 22.1232C3.58421 22.2199 3.69497 23.7213 3.73765 23.8807C3.78087 24.04 3.64526 24.4371 3.36649 25.5144C3.08718 26.5916 3.41836 28.402 3.46536 28.5841C3.5129 28.7662 3.35461 30.1033 3.39134 30.7873C3.42754 31.4718 4.09367 32.9007 4.1585 32.9407C4.22333 32.9807 4.45997 33.1584 4.52966 33.2627C4.59989 33.3664 4.64149 33.3578 4.77709 33.3616C4.9127 33.3653 5.47348 33.5831 5.51994 33.6339C5.56641 33.6846 5.59288 33.6663 5.69336 33.6587C5.79385 33.6511 5.96619 33.7808 6.3125 33.9061C6.6588 34.0315 6.8695 33.9758 6.93163 33.8564C6.99376 33.737 6.80791 33.5842 6.80791 33.5842C6.80791 33.5842 7.25254 33.4102 7.35248 33.2622C7.45243 33.1141 7.27631 33.059 7.15421 32.9899C7.03211 32.9202 7.06831 32.958 7.00564 32.9153C6.94297 32.8726 6.81007 32.884 6.7085 32.8408C6.60747 32.7981 6.39137 32.8029 6.16393 32.6922C5.93594 32.5814 5.76792 32.3459 5.76792 32.3459C5.76792 32.3459 5.86192 32.3756 6.01536 32.4696C6.16933 32.5636 6.32384 32.5107 6.33735 32.3956C6.35085 32.28 6.18013 31.9774 6.11476 31.8262C6.04939 31.6754 6.00887 31.5333 5.81762 31.3805C5.62637 31.2276 5.29466 31.2162 5.07477 31.0093C4.85543 30.8024 4.74144 30.4988 4.70362 30.2173C4.66526 29.9358 4.88406 28.7694 5.2979 27.3458C5.71173 25.9223 5.46592 24.65 5.44647 24.3755C5.42702 24.1011 5.4643 23.7051 5.54534 23.4101C5.62637 23.1151 5.6939 22.4447 5.6939 22.4447C5.6939 22.4447 6.15204 23.1248 6.28818 23.2864C6.42379 23.4474 6.64367 23.563 6.75874 23.6575C6.87382 23.7521 7.07101 24.1794 7.30332 24.8455C7.53563 25.5122 7.74903 27.9401 7.74903 27.9401L8.12018 28.7321C8.12018 28.7321 8.2882 28.8353 8.46649 28.9056C8.64477 28.9758 8.73878 29.3118 8.81333 29.4501C8.88734 29.589 9.40761 30.193 9.40761 30.193C9.40761 30.193 9.88898 30.4809 10.3979 30.7376C10.9068 30.9947 12.7005 32.3961 12.7005 32.3961C12.7005 32.3961 13.1872 32.5598 13.4676 32.5944C13.748 32.629 14.3596 32.5393 14.8042 32.5204C15.2488 32.5009 17.7848 32.6446 17.9479 32.6441C18.1111 32.6441 19.1219 32.3729 19.2354 32.347C19.3488 32.321 21.1414 32.5204 21.1414 32.5204L21.2402 32.4707C21.2402 32.4707 21.3191 32.4631 21.4385 32.4955C21.5579 32.528 21.5622 32.6193 21.5622 32.6193C21.5622 32.6193 21.1009 33.8532 21.0177 34.1044C20.9345 34.3556 20.7778 34.4021 20.6957 34.4016C20.6136 34.4016 20.3985 34.4264 20.3985 34.4264L19.4028 35.6404C19.2813 35.6015 19.2035 35.589 19.2035 35.589C19.2035 35.589 18.4207 35.4686 18.2413 35.4945C18.0619 35.5199 17.5692 35.6944 17.5157 36.3146C17.3872 36.5291 17.3423 36.6776 17.3423 36.6776C17.3423 36.6776 17.1824 36.8565 17.1689 36.9143C16.9377 37.1558 16.5935 37.7387 16.5222 37.9397C16.4622 38.0542 16.3801 38.1606 16.3801 38.1606C16.3801 38.1606 16.1667 38.3659 16.1435 38.7441C16.1203 39.1223 16.0473 39.3611 16.238 39.6906C16.4287 40.0202 16.795 40.3249 17.4687 40.7949C18.1424 41.2655 19.3602 42.1056 19.6303 42.3568C19.9566 42.608 20.7151 43.1164 21.6022 43.3033C22.4893 43.4902 23.2732 43.5318 24.0004 43.4767C24.7557 43.3741 25.089 43.1137 25.089 43.1137C25.089 43.1137 26.303 43.1072 27.3138 42.4983L27.3927 42.4508C27.3927 42.4508 27.4456 42.6696 27.6925 42.7982C27.6925 42.7982 27.1544 43.0175 27.2052 43.6539C27.2614 44.3563 27.5504 44.668 28.0712 44.7069C28.5791 44.7447 29.3133 44.46 29.3489 43.9338C29.3835 43.4265 29.2819 43.2023 29.2068 43.1131C29.1317 43.024 29.0961 43.0029 29.0961 43.0029C29.0961 43.0029 29.1026 43.0051 29.1117 42.9873C29.1398 42.9619 29.0804 42.8771 29.0804 42.8771C29.0804 42.8771 29.1269 42.836 29.128 42.7825C29.129 42.7371 29.0831 42.6669 29.0691 42.6469C29.075 42.6485 29.0901 42.641 29.128 42.5934C29.6093 42.1391 29.5391 41.9997 29.4591 41.3946C29.5942 41.3357 31.2576 40.6215 31.2576 40.6215L32.8195 39.9748C32.8195 39.9748 34.1334 39.3967 34.4603 39.2493C34.7871 39.1018 36.0389 38.5437 36.2431 38.4448C36.4468 38.3454 37.6445 37.8014 37.9471 37.6717C38.2496 37.542 39.4409 37.0229 39.7931 36.9143C40.1453 36.8057 40.8817 36.4723 40.8817 36.4723C40.8817 36.4723 40.9871 36.5788 41.1183 36.5669C41.0951 36.682 41.1102 36.8057 41.1815 36.8349C41.1961 36.9035 41.1972 36.9926 41.1972 36.9926C41.1972 36.9926 40.832 37.3303 40.724 37.75C40.6672 38.1466 40.7996 38.5367 41.1183 38.7598C41.4371 38.9829 41.9957 39.0272 42.2545 38.823C42.5133 38.6188 42.5857 38.4286 42.5857 38.4286C42.5857 38.4286 43.0832 37.8878 42.5381 37.1979C42.7656 36.8797 43.0114 36.5037 43.0114 36.5037C43.0114 36.5037 43.684 36.5474 43.8947 36.3303C44.1059 36.1131 44.1945 35.904 44.1945 35.904C44.1945 35.904 44.5165 35.6312 44.3842 35.005C44.247 34.6123 43.9887 34.4329 43.7688 34.2951C43.9098 34.0661 44.3842 33.475 44.3842 33.475C44.3842 33.475 44.7305 33.0563 45.0471 32.5285C45.4047 32.0007 45.8704 31.3399 45.9779 31.0136C46.0595 30.7008 45.899 30.5857 45.757 30.5879" fill="#D6753F"/>
</svg>
