<svg width="48" height="48" viewBox="0 0 48 48" fill="none" xmlns="http://www.w3.org/2000/svg">
<g clip-path="url(#clip0_4008_76836)">
<path d="M27.7002 22.0255C27.6456 21.8931 27.6027 21.7808 27.5534 21.6711C26.7365 19.8508 25.918 18.031 25.1022 16.2102C24.8823 15.7191 24.5491 15.3223 24.1205 15.0018C24.005 14.9155 23.8832 14.8376 23.7725 14.7454C23.2793 14.3338 23.2485 13.7176 23.6951 13.2578C23.8673 13.0809 24.0612 12.9203 24.2079 12.7243C24.4225 12.4377 24.645 12.1453 24.7896 11.8216C25.1552 11.0052 24.6095 10.1729 23.7078 10.1216C23.3725 10.1025 23.0499 10.1597 22.7421 10.2858C21.7143 10.7059 20.8402 11.3448 20.1107 12.1787C19.8093 12.5235 19.627 12.9415 19.4427 13.3553C18.1479 16.2685 16.8531 19.1817 15.5584 22.0954C13.6502 26.3903 11.7462 30.6873 9.83104 34.9795C9.50046 35.7201 9.28538 36.4909 9.18684 37.2882C9.0989 37.9976 8.72594 38.4526 8.10399 38.7482C7.4529 39.0582 6.75731 39.1991 6.04795 39.2563C5.41275 39.3077 4.77332 39.3273 4.13601 39.3241C3.75775 39.322 3.37844 39.2616 3.00336 39.2023C2.84549 39.1773 2.68762 39.1053 2.54882 39.0227C2.32154 38.8881 2.20976 38.6285 2.25903 38.4224C2.33214 38.1168 2.53557 37.9366 2.84019 37.9117C3.03462 37.8958 3.23116 37.8953 3.42453 37.8694C4.44169 37.7327 5.26071 37.2395 5.9208 36.466C6.21695 36.1195 6.4564 35.7381 6.645 35.3227C9.52483 28.983 12.4068 22.6443 15.2856 16.3035C16.6248 13.3537 17.9567 10.4002 19.2949 7.4494C19.8485 6.22881 20.6505 5.19894 21.6942 4.35554C22.261 3.89782 22.9079 3.58684 23.5696 3.29759C24.9025 2.71484 26.2693 2.2407 27.7076 1.99541C28.2872 1.89635 28.8715 1.84072 29.4596 1.90323C29.6317 1.92178 29.8066 1.95621 29.9692 2.01449C30.375 2.1607 30.4513 2.67617 30.1085 2.94741C30.0052 3.029 29.8834 3.09628 29.7599 3.14184C29.4903 3.24143 29.2185 3.3405 28.9399 3.4099C27.7315 3.71081 27.1662 4.63261 27.1837 5.80658C27.1911 6.32682 27.3129 6.8248 27.5275 7.3C28.3492 9.11818 29.1719 10.9358 29.9904 12.7551C31.3069 15.6815 32.6202 18.609 33.9345 21.536C33.9684 21.6112 34.0008 21.6865 34.0368 21.7606C34.1459 21.9858 34.3223 22.105 34.5777 22.0976C34.6598 22.0949 34.7424 22.0976 34.8245 22.0976C36.3895 22.0976 37.9544 22.0976 39.5194 22.0976C39.5914 22.0976 39.6635 22.097 39.7355 22.0976C40.0465 22.1013 40.1572 22.1664 40.1848 22.3614C40.2197 22.6109 40.0513 22.8493 39.7922 22.9023C39.4802 22.9664 39.1665 23.0247 38.8529 23.0813C38.347 23.1725 37.84 23.2588 37.3341 23.3494C37.243 23.3658 37.1502 23.3828 37.0649 23.4167C36.8557 23.5009 36.7312 23.654 36.7317 23.8876C36.7317 23.9798 36.7418 24.0725 36.7513 24.1642C36.7794 24.4391 36.6787 24.6648 36.435 24.7814C36.2163 24.8857 35.9757 24.9641 35.7368 25.0012C35.0232 25.1114 34.3229 24.9694 33.6225 24.8524C32.8014 24.7146 31.9818 24.5631 31.1575 24.445C30.073 24.2903 29.0024 24.4105 27.9428 24.6638C26.469 25.0161 25.0524 25.5426 23.6395 26.0809C23.4091 26.1688 23.1775 26.2552 22.9508 26.3527C22.4862 26.5529 22.0274 26.5195 21.5718 26.3304C21.1634 26.1609 20.8158 25.9024 20.5642 25.5405C20.3894 25.2889 20.2532 25.0102 20.1081 24.7385C19.7971 24.1552 19.9216 23.6021 20.2458 23.0723C20.7274 22.2856 21.4616 21.8676 22.3379 21.6668C23.0711 21.4984 23.809 21.5233 24.5481 21.6255C25.5059 21.758 26.4637 21.8915 27.4221 22.0218C27.501 22.0324 27.5831 22.0234 27.6997 22.0234L27.7002 22.0255Z" fill="#00B5AC"/>
<path d="M31.8563 26.7632C33.2787 26.8252 34.5104 27.3322 35.5986 28.2169C36.2502 28.7466 36.8128 29.3628 37.27 30.0642C37.7865 30.8562 38.2617 31.6752 38.765 32.4762C39.1586 33.1029 39.5618 33.7238 39.9734 34.3389C40.2372 34.7336 40.5668 35.0737 40.9201 35.3921C41.2608 35.6988 41.5442 36.0506 41.6321 36.5194C41.6528 36.6296 41.6671 36.7435 41.6639 36.8553C41.6485 37.3363 41.3413 37.5811 40.8629 37.5022C40.812 37.4937 40.7622 37.481 40.7114 37.4741C40.4698 37.4423 40.3215 37.5075 40.2584 37.7379C40.206 37.9313 40.1869 38.1448 40.2076 38.344C40.2452 38.6963 40.3702 39.0332 40.6128 39.2954C41.2841 40.0191 41.9484 40.7512 42.6583 41.4357C43.3952 42.1461 44.2677 42.678 45.1678 43.1633C45.3569 43.265 45.5418 43.3805 45.7114 43.5124C45.9513 43.6999 46.1182 43.9458 46.204 44.2424C46.3476 44.7378 46.1304 45.1515 45.6367 45.3073C45.3368 45.4016 45.0301 45.4037 44.7202 45.3571C43.9981 45.2474 43.338 44.965 42.6948 44.6371C40.8136 43.6766 39.0288 42.5572 37.2949 41.3536C36.5516 40.8376 35.7951 40.3396 34.974 39.9508C34.3457 39.6536 33.6882 39.4618 32.9974 39.3834C32.8951 39.3717 32.7934 39.3574 32.6912 39.3426C31.8918 39.2266 31.415 38.5633 31.5569 37.766C31.6899 37.0185 32.2425 36.485 33.0096 36.3663C33.1622 36.3425 33.3174 36.3345 33.4684 36.3044C33.737 36.2503 33.8567 36.0861 33.8143 35.8154C33.7936 35.6856 33.7428 35.5584 33.6893 35.4371C32.6308 33.0388 31.5686 30.6422 30.5117 28.2434C30.4169 28.0277 30.3327 27.8042 30.2754 27.5769C30.1854 27.2188 30.2643 27.071 30.6171 26.9883C31.0256 26.893 31.4436 26.8384 31.8579 26.7658L31.8563 26.7632Z" fill="#00B5AC"/>
</g>
<defs>
<clipPath id="clip0_4008_76836">
<rect width="48" height="48" fill="white"/>
</clipPath>
</defs>
</svg>
