<?xml version="1.0" encoding="UTF-8"?>
<svg id="a" data-name="Warcraft_Family" xmlns="http://www.w3.org/2000/svg" viewBox="0 0 48 48">
  <defs>
    <style>
      .d, .e {
        fill: #f8b700;
      }

      .e {
        fill-rule: evenodd;
      }
    </style>
  </defs>
  <path id="b" data-name="Border" class="d" d="M42.2,5.73v36.41H5.79V5.73h36.41M44.2,3.73H3.79v40.41h40.41V3.73h0Z"/>
  <path id="c" data-name="W" class="e" d="M24.98,36.17c1.07-2.92-.34-6.65-.95-8.8-.59,2.14-1.9,5.72-1,8.8h-8.06c1.41-.98,1.22-2.43,1.2-2.69-.12-1.21-.67-3.8-2.2-10.07-.75-3.08-2.63-9.68-2.69-9.81-.32-.72-.94-1.4-1.57-1.81h8.12c0,.05,0,.1,0,.15-.57.71-.5,3.08-.24,4.14.65,2.65,1.17,5.36,1.78,7.9.25,1.03.45,2.2.7,3.17.19-.78.36-1.09.43-1.43.23-1.07.5-2.13.84-3.24.86-3.29,1.72-6.57,2.58-9.86h.08c1.46,5.54,3.25,12.53,3.8,14.22.75-4,1.61-8.3,1.91-9.86.23-.9.66-3.05.39-3.99-.15-.52-.65-.73-.82-1.2h8.43c-2.4,1.64-3.01,5.93-3.96,11.47-.63,3.68-1.6,9.13-1.44,7.94-.28,1.14-.68,3.7.77,4.97,0,0-6.1.09-8.08,0Z"/>
</svg>