<?xml version="1.0" encoding="utf-8"?>
<!-- Generator: Adobe Illustrator 26.5.2, SVG Export Plug-In . SVG Version: 6.00 Build 0)  -->
<svg version="1.1" id="Warcraft_Arclight_Rumble_Icon"
	 xmlns="http://www.w3.org/2000/svg" xmlns:xlink="http://www.w3.org/1999/xlink" x="0px" y="0px" viewBox="0 0 50 50"
	 style="enable-background:new 0 0 50 50;" xml:space="preserve">
<style type="text/css">
	.st0{display:none;}
	.st1{display:inline;}
	.st2{fill:#FFC345;}
	.st3{fill:#1783FC;}
	.st4{fill:#65FAFF;}
	.st5{fill:#CA9A2D;}
	.st6{clip-path:url(#SVGID_00000025400482822593182210000009539181259378976671_);fill:#F3C029;}
	.st7{fill:#CB9B2E;}
	.st8{clip-path:url(#SVGID_00000157990878754664518300000016158038291974115462_);fill:#F3C029;}
</style>
<g id="BG_Check" class="st0">
	<g class="st1">
		<rect x="-0.9" y="0" class="st2" width="51.8" height="50.1"/>
	</g>
</g>
<g id="Color_Icon">
	<g id="Color">
		<g>
			<polygon id="Bolt_Outer_00000084510211084760089520000005978577460333269168_" class="st3" points="3,41.2 24.8,12.8 26.5,20.6 
				45.1,8.7 22.6,38.9 21,30.9 			"/>
			<polygon id="Bolt_Inner_00000057110097004243105640000016286091061572752517_" class="st4" points="8.9,36.1 23.9,17 25.4,23.7 
				39.5,13.8 23.7,34.9 22.2,28.2 			"/>
		</g>
	</g>
	<g id="Gear_Bottom">
		<path class="st5" d="M43.8,20.1l3.2-2.8l-2.7-4.8l-6.1,8.5c0,0,2.8,6.5-3.4,13.2c-4.1,4.5-9.9,3.7-9.9,3.7l-2.7,3.2l-1.3-4
			c0,0-0.8-0.4-2.5-1.6c-1.2-1-1.2-0.9-1.2-1l-5.1,3.1l9.1,5.3l0.6,4.3h8l0.7-4.3l8.6-4.9l4.7,0.5l3.2-5.6l-3.2-3
			C43.8,29.8,43.8,20.1,43.8,20.1z M25.8,45.4c-1.2,0-2.1-0.9-2.1-2.1s0.9-2.1,2.1-2.1c1.1,0,2.1,0.9,2.1,2.1S26.9,45.4,25.8,45.4z
			 M41,35.7c-1.2,0-2.1-0.9-2.1-2.1s0.9-2.1,2.1-2.1s2.1,0.9,2.1,2.1S42.2,35.7,41,35.7z"/>
		<g>
			<defs>
				
					<rect id="SVGID_1_" x="25.5" y="22" transform="matrix(0.7992 0.6011 -0.6011 0.7992 27.0023 -15.4683)" width="22.3" height="21.3"/>
			</defs>
			<clipPath id="SVGID_00000075133456212352472110000010580075822202493077_">
				<use xlink:href="#SVGID_1_"  style="overflow:visible;"/>
			</clipPath>
			<path style="clip-path:url(#SVGID_00000075133456212352472110000010580075822202493077_);fill:#F3C029;" d="M43.8,20.1l3.2-2.8
				l-2.7-4.8l-6.1,8.5c0,0,2.8,6.5-3.4,13.2c-4.1,4.5-9.9,3.7-9.9,3.7l-2.7,3.2l-1.3-4c0,0-0.8-0.4-2.5-1.6c-1.2-1-1.2-0.9-1.2-1
				l-5.1,3.1l9.1,5.3l0.6,4.3h8l0.7-4.3l8.6-4.9l4.7,0.5l3.2-5.6l-3.2-3C43.8,29.8,43.8,20.1,43.8,20.1z M25.8,45.4
				c-1.2,0-2.1-0.9-2.1-2.1s0.9-2.1,2.1-2.1c1.1,0,2.1,0.9,2.1,2.1S26.9,45.4,25.8,45.4z M41,35.7c-1.2,0-2.1-0.9-2.1-2.1
				s0.9-2.1,2.1-2.1s2.1,0.9,2.1,2.1S42.2,35.7,41,35.7z"/>
		</g>
	</g>
	<g id="Gear_Top">
		<path class="st7" d="M15.7,17.1c4.1-4.9,9.4-5.2,12.1-4.9c2.7,0.3,5.6,2.3,5.6,2.3l4.7-3l-7.5-4.4L30,2.9h-7.7l-1.2,4.5L13,12.2
			l-4.7-0.7l-3.3,5.7l3,2.8l0.3,9.2l-3.7,2.7l1.5,3.1l7.3-9.2C13.4,25.7,12.4,21,15.7,17.1z M25.8,4.9c1.2,0,2.1,0.9,2.1,2.1
			s-0.9,2.1-2.1,2.1c-1.1,0-2.1-0.9-2.1-2.1S24.6,4.9,25.8,4.9z M10.3,18.2c-1.1,0-2.1-0.9-2.1-2.1S9.1,14,10.3,14s2.1,0.9,2.1,2.1
			S11.4,18.2,10.3,18.2z"/>
		<g>
			<defs>
				
					<rect id="SVGID_00000055672971664679300050000012021230636705464218_" x="5.7" y="6.8" transform="matrix(0.7992 0.6011 -0.6011 0.7992 13.8709 -6.6585)" width="22.3" height="21.3"/>
			</defs>
			<clipPath id="SVGID_00000018927629766040953380000014933339883308610698_">
				<use xlink:href="#SVGID_00000055672971664679300050000012021230636705464218_"  style="overflow:visible;"/>
			</clipPath>
			<path style="clip-path:url(#SVGID_00000018927629766040953380000014933339883308610698_);fill:#F3C029;" d="M15.7,17.1
				c4.1-4.9,9.4-5.2,12.1-4.9c2.7,0.3,5.6,2.3,5.6,2.3l4.7-3l-7.5-4.4L30,2.9h-7.7l-1.2,4.5L13,12.2l-4.7-0.7l-3.3,5.7l3,2.8
				l0.3,9.2l-3.7,2.7l1.5,3.1l7.3-9.2C13.4,25.7,12.4,21,15.7,17.1z M25.8,4.9c1.2,0,2.1,0.9,2.1,2.1s-0.9,2.1-2.1,2.1
				c-1.1,0-2.1-0.9-2.1-2.1S24.6,4.9,25.8,4.9z M10.3,18.2c-1.1,0-2.1-0.9-2.1-2.1S9.1,14,10.3,14s2.1,0.9,2.1,2.1
				S11.4,18.2,10.3,18.2z"/>
		</g>
	</g>
</g>
</svg>
